<?xml version="1.0" encoding="UTF-8"?><svg id="a" xmlns="http://www.w3.org/2000/svg" viewBox="0 0 480 194.2"><path d="M88.01,146.51c-18.58,12.77-49.29,10.62-65.83-7.78l-.7,54.79c-7.87,1.1-13.99.83-21.47-.51V46.6s21.02-.5,21.02-.5l1.36,12.08c10.2-10.87,21.3-14.04,34.88-14.84,28.49-1.67,52.69,17.74,56.21,46.33,1.81,14.7-.08,28.85-8.89,41.25-4.45,6.26-9.54,12.38-16.57,15.58ZM55.08,134.3c13.69,1.19,25.84-6.8,32.18-16.98,7.51-12.05,6.19-25.13-.28-37.3-6.27-11.78-18.43-17.72-31.58-17.14-11.81.52-24.05,7.34-28.98,18.59-5.3,12.12-6.67,23.65,0,35.27,5.5,9.59,15.2,16.39,28.67,17.56Z" style="fill:#470d99;"/><path d="M279.98,121.98c-.78,17.61,1.24,16.52-1.62,29.84l-19.33-.32-1.39-11.69c-5.59,3.53-9.78,7.64-15.21,10.16-15.44,7.18-34.08,5.87-49.72-3.45-12.41-7.39-23.08-21.81-25.69-37.95-1.15-7.08-.48-13.01.4-19.56,1.7-12.71,7.2-22.56,16.25-31.48,9.99-9.85,22.87-14.12,37.14-14.13,13.94,0,25.81,3.19,36.67,14.79l1.63-11.75,16.7-.36c.77-.02,2.87.4,3.56.67.92.36,1,2.96.82,4.1-1.27,7.93-.59,14.92-.22,22.78.76,16.11.73,32.2.02,48.33ZM251.99,119.4c8.25-11.23,7.46-25.89,1.44-38.44s-18.02-18.61-30.73-18.21c-12.71.39-25.11,7.03-30.15,19.05-4.97,11.85-6.29,22.12-.17,33.86,4.64,8.89,13.6,15.61,24.87,18.09,13,2.86,26.63-3.31,34.73-14.34Z" style="fill:#470d99;"/><path d="M471.46,128.84c-10.17,15.09-25.86,24.63-43.25,25.36-14.67.62-27.95-2.04-39.15-10.58-18.28-13.93-25.43-34.85-21.12-56.6,5.65-28.54,30.25-45.14,58.89-43.77,18.12.86,33.82,9.16,44.54,24.51,2.72,3.9,4.4,8.76,5.9,13.89,4.6,15.8,3.87,32.84-5.8,47.19ZM434.6,132.15c20.99-6.46,28.1-28.21,20.8-46.93-4.11-10.54-11.15-17.7-22.35-20.96-11.4-3.32-23.05-.76-32.35,6.84-4.25,3.48-6.28,7.11-8.43,12.06-8.11,18.64-2.22,40.38,17.78,48.6,7.87,3.23,15.44,3.2,24.55.39Z" style="fill:#470d99;"/><path d="M361.43,151.28c-10.5,2.47-19.27,2.99-29.84.22-8.77-2.3-18.97-11.76-19.06-21.86l-.56-64-19.95-.21c-.63-6.85-.63-12.41-.15-19.07l15.33-.18c1.85-.02,4.93-3.11,4.94-5.09l.07-20.06c1.14-1.24,22.48-8.61,21.61-4.55l.78,29.43,26.89.5-.05,19.02-27.21.51-.08,56.31c0,4.24,2.77,9.97,7.53,10.03l19.88.26-.12,18.74Z" style="fill:#470d99;"/><path d="M130.1,151.39l-.63-46.65c-.08-5.6-.39-10.71.01-16.35.76-10.66-.07-21.09-.2-31.72l-.64-49.51c-.02-1.8,1.42-5.36,2.62-7.16l20.6.43.1,146.66c0,1.39-2.36,4.76-3.77,4.72l-18.1-.42Z" style="fill:#470d99;"/><path d="M33.84,95.22c1.18-8.76,11.3-20.82,22.86-21.34,7.85-.35,13.44,4.43,18.37,10.55,6.53,8.11,7.55,20.35,1.26,28.66-6.6,8.72-17.66,12.64-27.85,8.35-10.16-4.28-16.34-13.62-14.65-26.22Z" style="fill:#470d99;"/></svg>
